# xmcd
#
# Track frame offsets: 
#        150
#        20130
#        42912
#        57661
#        71701
#        86495
#        106937
#        126040
#        148075
#        165751
#
# Disc length: 2490 seconds
#
# Revision: 0
# Processed by: cddbd v1.5.2PL0 Copyright (c) Steve Scherf et al.
# Submitted via: ExactAudioCopyFreeDBPlugin 1.0
#
DISCID=8809b80a
DTITLE=Caitlin Robertson - If It Takes All Winter
DYEAR=2012
DGENRE=Country
TTITLE0=If It Takes All Winter   
TTITLE1=Minnesota in the Snow   
TTITLE2=Valentine   
TTITLE3=Unrequited Lover Like No Other   
TTITLE4=Create Your Reality   
TTITLE5=Time Stood Still   
TTITLE6=Like Pure Snow   
TTITLE7=The Longest Night   
TTITLE8=You Are My Sunshine   
TTITLE9=Star of the North
EXTD=
EXTT0=
EXTT1=
EXTT2=
EXTT3=
EXTT4=
EXTT5=
EXTT6=
EXTT7=
EXTT8=
EXTT9=
PLAYORDER=
